<svg width="14" height="17" viewBox="0 0 14 17" fill="none" xmlns="http://www.w3.org/2000/svg">
<path d="M9.34861 3.05189C9.65042 2.70334 9.88055 2.29848 10.0258 1.86056C10.171 1.42264 10.2285 0.960293 10.1949 0.500061C9.26828 0.575006 8.40816 1.01167 7.79982 1.71598C7.50851 2.05354 7.28775 2.44624 7.15062 2.87082C7.01349 3.2954 6.96277 3.74324 7.00148 4.18782C7.45346 4.19159 7.90024 4.0911 8.30725 3.89412C8.71426 3.69715 9.07057 3.40897 9.34861 3.05189ZM11.3604 9.0035C11.3658 8.39053 11.5269 7.78903 11.8286 7.25577C12.1304 6.72252 12.5627 6.27508 13.0849 5.9557C12.7553 5.47992 12.3197 5.08762 11.8125 4.80991C11.3053 4.53221 10.7405 4.37673 10.1629 4.3558C8.91751 4.22781 7.76789 5.08376 7.10527 5.08376C6.44264 5.08376 5.50858 4.3718 4.47073 4.3878C3.79224 4.4102 3.13113 4.60841 2.55187 4.96311C1.97261 5.31781 1.49499 5.81689 1.16559 6.41167C-0.239498 8.85951 0.806333 12.4993 2.21142 14.4751C2.85009 15.4431 3.64844 16.539 4.70225 16.499C5.75606 16.459 6.09935 15.843 7.32082 15.843C8.54228 15.843 8.91751 16.499 9.95535 16.475C10.9932 16.451 11.7277 15.4831 12.3983 14.5151C12.8733 13.8124 13.2444 13.0445 13.5 12.2353C12.8673 11.9649 12.3275 11.5148 11.9473 10.9404C11.567 10.3661 11.363 9.69271 11.3604 9.0035Z" fill="white"/>
</svg>
