<?xml version="1.0" encoding="utf-8"?>
<!-- Svg Vector Icons : http://www.onlinewebfonts.com/icon -->
<!DOCTYPE svg PUBLIC "-//W3C//DTD SVG 1.1//EN" "http://www.w3.org/Graphics/SVG/1.1/DTD/svg11.dtd">
<svg version="1.1" xmlns="http://www.w3.org/2000/svg" xmlns:xlink="http://www.w3.org/1999/xlink" x="0px" y="0px" viewBox="0 0 256 256" enable-background="new 0 0 256 256" xml:space="preserve">
<metadata> Svg Vector Icons : http://www.onlinewebfonts.com/icon </metadata>
<g><g><g><path fill="#000000" d="M45.5,41.6L42.1,45l86.4,86.4l86.4,86.4l3.5-3.5l3.5-3.5l-86.2-86.2C88.3,77.1,49.3,38.3,49.1,38.3S47.3,39.8,45.5,41.6z"/><path fill="#000000" d="M117.4,61.8c-10.1,0.9-29.2,4.8-30.6,6.2c-0.2,0.2,1.2,2.1,3.1,4l3.7,3.6l7.5-1.6c10.2-2.3,16.3-2.9,26.8-2.9c36.1,0,70.9,14.9,96.6,41.5c3,3.2,6.5,7,7.8,8.6l2.3,2.9l-3.4,4.1c-10.8,13.2-27.7,26.6-43.6,34.6l-4.5,2.3l3.5,3.5l3.5,3.6l4.3-2.2c13.6-6.8,29.4-19.1,40-31c5.2-5.9,11.5-14,11.5-14.9c0-1-6.3-9.1-11.7-15.2c-21.6-24.1-53.3-41-86.4-46.1C141.6,62,122.8,61.3,117.4,61.8z"/><path fill="#000000" d="M60.7,79.3c-16.3,9-32.4,22.7-45.3,38.5l-5.4,6.5l5.2,6.3c36.2,44,87.4,63.8,139.1,53.7c4.1-0.8,9.4-2,11.8-2.7l4.5-1.3l-3.8-3.8l-3.8-3.8l-5.8,1.4c-19.3,4.7-43.2,4.3-62.4-1c-16.7-4.6-33.7-13.3-48.5-24.9c-6.2-4.8-23.5-22.4-23.5-23.8c0-1.5,13.7-15.8,21.3-22.1c7.2-6,15.7-11.8,23.5-15.8l6-3.2l-3.5-3.5c-2-2-3.6-3.6-3.6-3.6S63.9,77.5,60.7,79.3z"/><path fill="#000000" d="M121.8,88.3c-3.4,0.5-11.2,3.5-11.2,4.1c0,0.5,48.9,49.4,49.4,49.4c0.2,0,1.2-1.8,2-4C172.8,111.3,150.2,83.5,121.8,88.3z"/><path fill="#000000" d="M94.6,110.4c-4,9.9-3.5,20.5,1.1,29.9c6.9,13.9,22.3,22.1,37.5,19.9c4.5-0.7,12.9-3.4,12.9-4.3c0-0.5-48.9-49.4-49.4-49.4C96.4,106.5,95.5,108.3,94.6,110.4z"/></g></g></g>
</svg>