<svg width="37" height="53" viewBox="0 0 37 53" fill="none" xmlns="http://www.w3.org/2000/svg">
<path d="M36.0781 18.5166C36.0781 8.85669 28.168 0.953125 18.5 0.953125C8.83203 0.953125 0.921875 8.85669 0.921875 18.5166C0.921875 27.6975 7.95312 35.2019 16.902 36.0002V42.4668H12.108C11.229 42.4668 10.5099 43.1853 10.5099 44.0635C10.5099 44.9417 11.229 45.6602 12.108 45.6602H16.902V50.4502C16.902 51.3284 17.6211 52.0469 18.5 52.0469C19.3789 52.0469 20.098 51.3284 20.098 50.4502V45.6602H24.892C25.771 45.6602 26.4901 44.9417 26.4901 44.0635C26.4901 43.1853 25.771 42.4668 24.892 42.4668H20.098V36.0002C29.0469 35.2019 36.0781 27.6975 36.0781 18.5166ZM4.1179 18.5166C4.1179 10.613 10.5898 4.14648 18.5 4.14648C26.4102 4.14648 32.8821 10.613 32.8821 18.5166C32.8821 26.4202 26.4102 32.8867 18.5 32.8867C10.5898 32.8867 4.1179 26.4202 4.1179 18.5166Z" fill="white"/>
</svg>
