<svg width="16" height="17" viewBox="0 0 16 17" fill="none" xmlns="http://www.w3.org/2000/svg">
<g clip-path="url(#clip0_0_487)">
<path d="M15.6169 8.64988C15.6169 7.99437 15.5637 7.51602 15.4487 7.01996H7.96826V9.97861H12.3591C12.2706 10.7139 11.7926 11.8212 10.7302 12.5652L10.7154 12.6643L13.0805 14.4978L13.2444 14.5141C14.7493 13.1233 15.6169 11.0771 15.6169 8.64988Z" fill="white"/>
<path d="M7.9682 16.4452C10.1193 16.4452 11.9253 15.7365 13.2443 14.5141L10.7302 12.5652C10.0574 13.0347 9.15442 13.3625 7.9682 13.3625C5.8613 13.3625 4.07309 11.9718 3.43565 10.0495L3.34221 10.0574L0.88287 11.962L0.850708 12.0515C2.16088 14.6558 4.85207 16.4452 7.9682 16.4452Z" fill="white"/>
<path d="M3.43574 10.0495C3.26755 9.55342 3.17021 9.02188 3.17021 8.47269C3.17021 7.92344 3.26755 7.39196 3.42689 6.8959L3.42244 6.79025L0.932277 4.8551L0.850803 4.89388C0.31082 5.97461 0.000976562 7.18823 0.000976562 8.47269C0.000976562 9.75715 0.31082 10.9707 0.850803 12.0514L3.43574 10.0495Z" fill="white"/>
<path d="M7.9682 3.58287C9.46426 3.58287 10.4734 4.22953 11.0489 4.76992L13.2974 2.57304C11.9165 1.28858 10.1193 0.500183 7.9682 0.500183C4.85207 0.500183 2.16088 2.28956 0.850708 4.89389L3.4268 6.89591C4.07309 4.97365 5.8613 3.58287 7.9682 3.58287Z" fill="white"/>
</g>
<defs>
<clipPath id="clip0_0_487">
<rect width="15.625" height="16" fill="white" transform="translate(0.00012207 0.500183)"/>
</clipPath>
</defs>
</svg>
