<svg width="39" height="53" viewBox="0 0 39 53" fill="none" xmlns="http://www.w3.org/2000/svg">
<path d="M21.2031 14.7059V6.71193L23.4172 8.92302C23.5665 9.08993 23.7506 9.22212 23.9566 9.31028C24.1626 9.39844 24.3854 9.44042 24.6094 9.43327C25.055 9.41038 25.4777 9.22944 25.8016 8.92302C26.1136 8.60508 26.2884 8.17763 26.2884 7.73243C26.2884 7.28723 26.1136 6.85978 25.8016 6.54184L20.6922 1.43932C20.3738 1.12768 19.9458 0.953125 19.5 0.953125C19.0542 0.953125 18.6262 1.12768 18.3078 1.43932L13.1985 6.54184C12.9525 6.86938 12.8331 7.27453 12.8621 7.68292C12.8912 8.0913 13.0668 8.47552 13.3567 8.76502C13.6466 9.05452 14.0313 9.22988 14.4402 9.25891C14.8492 9.28793 15.2549 9.16867 15.5828 8.92302L17.7969 6.71193V14.7059C12.9958 15.1436 8.54842 17.4128 5.37991 21.0416C2.21141 24.6704 0.565679 29.3793 0.785046 34.1889C1.00441 38.9986 3.07199 43.5386 6.55771 46.8647C10.0434 50.1908 14.6789 52.0469 19.5 52.0469C24.3211 52.0469 28.9566 50.1908 32.4423 46.8647C35.928 43.5386 37.9956 38.9986 38.215 34.1889C38.4344 29.3793 36.7886 24.6704 33.6201 21.0416C30.4516 17.4128 26.0043 15.1436 21.2031 14.7059ZM19.5 48.5526C16.4684 48.5526 13.5049 47.6548 10.9842 45.9728C8.46347 44.2908 6.49883 41.9001 5.33868 39.103C4.17853 36.3059 3.87498 33.228 4.46642 30.2587C5.05786 27.2893 6.51772 24.5617 8.6614 22.4209C10.8051 20.2801 13.5363 18.8222 16.5097 18.2316C19.483 17.641 22.565 17.9441 25.3658 19.1027C28.1667 20.2613 30.5606 22.2233 32.2449 24.7406C33.9292 27.2579 34.8281 30.2175 34.8281 33.245C34.8281 37.3048 33.2132 41.1984 30.3386 44.0691C27.4641 46.9398 23.5653 48.5526 19.5 48.5526Z" fill="white"/>
</svg>
