<svg width="20" height="21" viewBox="0 0 20 21" fill="none" xmlns="http://www.w3.org/2000/svg">
<path d="M15.8333 9.66669H4.16667C3.24619 9.66669 2.5 10.4129 2.5 11.3334V17.1667C2.5 18.0872 3.24619 18.8334 4.16667 18.8334H15.8333C16.7538 18.8334 17.5 18.0872 17.5 17.1667V11.3334C17.5 10.4129 16.7538 9.66669 15.8333 9.66669Z" stroke="#D3D3D3" stroke-linecap="round" stroke-linejoin="round"/>
<path d="M5.83337 9.66669V6.33335C5.83337 5.22828 6.27236 4.16848 7.05376 3.38708C7.83516 2.60567 8.89497 2.16669 10 2.16669C11.1051 2.16669 12.1649 2.60567 12.9463 3.38708C13.7277 4.16848 14.1667 5.22828 14.1667 6.33335V9.66669" stroke="#D3D3D3" stroke-linecap="round" stroke-linejoin="round"/>
</svg>
